# xmcd
#
# Track frame offsets:
# 150
# 11748
# 24215
# 36969
# 48536
# 61989
# 76084
# 90423
# 102153
# 116843
#
# Disc length: 1730 seconds
#
#
# Revision: 0
# Processed by: cddbd v1.4PL0 Copyright (c) Steve Scherf et al.
# Submitted via: FreeRIP 2.35 
#
DISCID=7106c00a
DTITLE=Louis Armstrong - Volume 1
DYEAR=1997
DGENRE=Blues
TTITLE0=My Heart
TTITLE1=(Yes)I'm InThe Barrel
TTITLE2=Gut Bucket Blues
TTITLE3=Come Back, Sweet Papa
TTITLE4=Heebie Jeebies
TTITLE5=Cornet Chop Suey
TTITLE6=Oriental Strut
TTITLE7=Muskrat Ramble
TTITLE8=Don't Forget To Mess Around
TTITLE9=Sweet Little Papa
EXTD=Columbia River Entertainment Group\nCUP - 7 23723 17532 8
EXTT0=
EXTT1=
EXTT2=
EXTT3=
EXTT4=
EXTT5=
EXTT6=
EXTT7=
EXTT8=
EXTT9=
PLAYORDER=
